# Blender 3.4.1
# www.blender.org
mtllib sofa.mtl
o 立方體.001
v -0.195361 0.000000 -0.565747
v -0.195361 0.300000 -0.565747
v -0.195361 0.000000 -0.665747
v -0.195361 0.300000 -0.665747
v 0.304639 0.000000 -0.565747
v 0.304639 0.300000 -0.565747
v 0.304639 0.000000 -0.665747
v 0.304639 0.300000 -0.665747
v 0.304639 0.200000 -0.565747
v 0.304639 0.000000 -0.565747
v 0.304639 0.200000 0.434253
v 0.304639 0.000000 0.434253
v -0.195361 0.200000 -0.565747
v -0.195361 0.000000 -0.565747
v -0.195361 0.200000 0.434253
v -0.195361 0.000000 0.434253
v 0.304639 0.000000 0.534253
v 0.304639 0.500000 0.534253
v 0.304639 0.000000 -0.665747
v 0.304639 0.500000 -0.665747
v 0.404639 0.000000 0.534253
v 0.404639 0.500000 0.534253
v 0.404639 0.000000 -0.665747
v 0.404639 0.500000 -0.665747
v -0.195361 0.000000 0.534253
v -0.195361 0.300000 0.534253
v -0.195361 0.000000 0.434253
v -0.195361 0.300000 0.434253
v 0.304639 0.000000 0.534253
v 0.304639 0.300000 0.534253
v 0.304639 0.000000 0.434253
v 0.304639 0.300000 0.434253
vn -0.1864 0.3107 0.9321
vn -0.1864 -0.3107 -0.9321
vn -0.1864 -0.3107 0.9321
vn -0.1864 0.3107 -0.9321
vn 0.1864 -0.3107 -0.9321
vn 0.1864 0.3107 -0.9321
vn 0.1864 -0.3107 0.9321
vn 0.1864 0.3107 0.9321
s 1
usemtl Material.006
f 2//1 3//2 1//3
f 4//4 7//5 3//2
f 8//6 5//7 7//5
f 6//8 1//3 5//7
f 7//5 1//3 3//2
f 4//4 6//8 8//6
f 13//4 11//8 9//6
f 11//8 16//3 12//7
f 15//1 14//2 16//3
f 10//5 16//3 14//2
f 9//6 12//7 10//5
f 13//4 10//5 14//2
f 18//1 19//2 17//3
f 20//4 23//5 19//2
f 24//6 21//7 23//5
f 22//8 17//3 21//7
f 23//5 17//3 19//2
f 20//4 22//8 24//6
f 26//1 27//2 25//3
f 28//4 31//5 27//2
f 32//6 29//7 31//5
f 30//8 25//3 29//7
f 31//5 25//3 27//2
f 28//4 30//8 32//6
f 2//1 4//4 3//2
f 4//4 8//6 7//5
f 8//6 6//8 5//7
f 6//8 2//1 1//3
f 7//5 5//7 1//3
f 4//4 2//1 6//8
f 13//4 15//1 11//8
f 11//8 15//1 16//3
f 15//1 13//4 14//2
f 10//5 12//7 16//3
f 9//6 11//8 12//7
f 13//4 9//6 10//5
f 18//1 20//4 19//2
f 20//4 24//6 23//5
f 24//6 22//8 21//7
f 22//8 18//1 17//3
f 23//5 21//7 17//3
f 20//4 18//1 22//8
f 26//1 28//4 27//2
f 28//4 32//6 31//5
f 32//6 30//8 29//7
f 30//8 26//1 25//3
f 31//5 29//7 25//3
f 28//4 26//1 30//8
